<?xml version="1.0" ?><svg id="Layer_1" style="enable-background:new 0 0 128 128;" version="1.1" viewBox="0 0 128 128" xml:space="preserve" xmlns="http://www.w3.org/2000/svg" xmlns:xlink="http://www.w3.org/1999/xlink"><style type="text/css">
	.st0{fill:#231F20;}
	.st1{fill:#E61E25;}
	.st2{fill:#089949;}
	.st3{fill:#FFFFFF;}
	.st4{fill:#D81F26;}
	.st5{fill:#233E93;}
	.st6{fill:#F16522;}
	.st7{fill:#0398C3;}
	.st8{fill:#DE1E39;}
	.st9{fill:#00AD65;}
	.st10{fill:#FFFFFB;}
	.st11{fill:#CE2031;}
	.st12{fill:#A81D44;}
	.st13{fill:#008757;}
	.st14{fill:#ED3342;}
	.st15{fill:#F8EC3B;}
	.st16{fill:#F37C20;}
	.st17{fill:#F1E923;}
	.st18{fill:#020202;}
	.st19{fill:#E32A27;}
	.st20{fill:#EC1C2B;}
	.st21{fill:#28439B;}
	.st22{fill:#E32B25;}
	.st23{fill:#FDDB00;}
	.st24{fill:#E71D2E;}
	.st25{fill:#0D8943;}
	.st26{fill:#F58722;}
	.st27{fill:#333493;}
	.st28{fill:#D52028;}
	.st29{fill:#2B4A9E;}
	.st30{fill:#1D9E49;}
	.st31{fill:#DB1F26;}
	.st32{fill:#DD1F28;}
	.st33{fill:#35469C;}
	.st34{fill:#ED2424;}
	.st35{fill:#018B45;}
	.st36{fill:#DD1F26;}
	.st37{fill:#0A9D49;}
	.st38{fill:#E81E25;}
	.st39{fill:#293580;}
	.st40{fill:#D91F26;}
	.st41{fill:#EC1C25;}
	.st42{fill:#27B36D;}
	.st43{fill:#FBDF00;}
	.st44{fill:#3EB44A;}
	.st45{fill:#ED2E33;}
	.st46{fill:#DF252F;}
	.st47{fill:#2F4C9F;}
	.st48{fill:#F6CD0F;}
	.st49{fill:#DC1F28;}
	.st50{fill:#117F40;}
	.st51{fill:#E13131;}
	.st52{fill:#2B2D7E;}
	.st53{fill:#FCD900;}
	.st54{fill:#038A45;}
	.st55{fill:#EC2025;}
	.st56{fill:#EC1C2A;}
	.st57{fill:#2651A3;}
	.st58{fill:#0D804B;}
	.st59{fill:#354EA0;}
	.st60{fill:none;}
	.st61{fill:#DF1F2A;}
	.st62{fill:#FFFFFA;}
	.st63{fill:#F9D10B;}
	.st64{fill:#DF1F26;}
	.st65{fill:#009651;}
</style><g><path class="st65" d="M114,64c0,9.1-2.4,17.6-6.7,25c-8.6,15-24.8,25-43.3,25c-18.5,0-34.7-10-43.3-25C16.4,81.6,14,73.1,14,64   s2.4-17.7,6.7-25C29.3,24,45.5,14,64,14c18.5,0,34.7,10,43.3,25C111.6,46.3,114,54.9,114,64z"/><path class="st3" d="M88.4,47.1c-0.1,0-0.2,0-0.3,0c-0.5,0-1-0.3-1.3-0.7c-0.1-0.2-0.2-0.5-0.2-0.7c0-0.3,0.1-0.5,0.2-0.7   c0.3-0.4,0.7-0.7,1.3-0.7c0.1,0,0.2,0,0.3,0c-0.4,0.1-0.8,0.3-1,0.7c-0.1,0.2-0.2,0.5-0.2,0.7c0,0.3,0.1,0.5,0.2,0.7   C87.6,46.7,88,47,88.4,47.1z"/><g><polygon class="st3" points="89.1,46.2 89.1,46.3 89,46.3 88.9,46.4 88.9,46.2 88.7,46.2 88.9,46.1 88.9,46 89,46.1 89.2,46.1       "/><polygon class="st3" points="89.3,45.4 89.4,45.4 89.3,45.5 89.4,45.6 89.3,45.6 89.2,45.7 89.1,45.5 89,45.5 89.2,45.4     89.2,45.3   "/><polygon class="st3" points="88.6,44.9 88.6,44.8 88.7,44.9 88.8,44.9 88.8,45 88.8,45.1 88.7,45.1 88.6,45.2 88.5,45.1 88.4,45       "/><polygon class="st3" points="87.9,45.5 87.8,45.4 87.9,45.3 88,45.2 88,45.3 88.2,45.3 88.1,45.4 88.2,45.6 88,45.5 87.9,45.6       "/><polygon class="st3" points="88.2,46.3 88.1,46.4 88.1,46.2 88,46.1 88.1,46.1 88.2,45.9 88.2,46.1 88.4,46 88.3,46.2 88.4,46.3       "/></g><path class="st3" d="M60.4,64.6c-0.9,1.2-2,1.6-3.2,1.6c-0.4,0-0.9-0.8-1-1.4c-0.2-0.6,0.5-0.5,0.9-0.6c0.7-0.1,1.4-0.1,2.1-0.1   C59.6,64.2,60,64.4,60.4,64.6z"/><path class="st3" d="M65.1,63c-0.5-0.4-0.7-0.9-0.1-1.3c0.1-0.1,0.6,0,0.6,0.1C65.9,62.4,65.6,62.8,65.1,63z"/><path class="st3" d="M68.8,63.1c0.1,0.4,0.2,0.8,0.2,1.2c-0.2,0-0.4,0.1-0.5,0.1c-0.4-0.4-0.4-0.8-0.1-1.2   C68.5,63.2,68.6,63.2,68.8,63.1z"/><path class="st3" d="M51.8,63.3c-1.2,0.4-2.4,0.8-3.6,1.2c-0.3,0.1-0.7,0.1-1,0.2c-0.1,0-0.1,0-0.2-0.1c0-0.1,0-0.2,0.1-0.2   c0.6-0.4,1.1-0.9,1.7-1.2c1-0.6,2-1.2,3-1.7c0.2-0.1,0.3-0.2,0.3-0.4c0.2-0.4,0.3-0.9,0.5-1.3c0.1-0.2,0.3-0.3,0.4-0.5   c0,0,0,0,0.1,0.1c0,0.4-0.1,0.8-0.1,1.3c0.1-0.1,0.2-0.1,0.2-0.1c0.7-0.5,1.3-1.1,2-1.6c0.6-0.4,0.6-1.2,0.2-1.7   c-0.2-0.3-0.4-0.5-0.6-0.7c-0.4-0.4-0.6-1.1-0.4-1.7c0.2-0.4,0.6-0.6,1-0.5c0.6,0.2,1.4,1.3,1.3,1.9c-0.2,0-0.4-0.1-0.6-0.1   c0.5,0.6,0.6,1.4,0.7,2.1c0,0.5-0.1,0.9-0.3,1.3c-0.6,1.1-1.4,1.9-2.4,2.5c-0.2,0.1-0.4,0.3-0.6,0.4c-0.2,0.1-0.2,0.3-0.1,0.4   c0.1,0.3,0.4,0.5,0.7,0.5c0.5,0,0.9,0,1.3-0.3c1-0.6,1.9-1.4,2.5-2.3c0.4-0.5,0.5-1,0.4-1.6c-0.1-0.8-0.3-1.6-0.6-2.4   c-0.2-0.5-0.4-1-0.6-1.5c-0.3-0.6-0.1-1.1,0.4-1.5c0.1-0.1,0.2-0.1,0.3,0c0.2,0.1,0.4,0.3,0.5,0.5c0.7,1.2,1.1,2.6,1.2,4   c0,0.2,0.1,0.3,0.2,0.5c0.9-1.4,2.3-1.7,3.7-2.1c0.1,0,0.2,0,0.3-0.1c0.6-0.1,0.5-0.1,0.6-0.6c0-0.3,0-0.7,0.1-1   c0.2-0.7,1-1.3,1.6-1.3c1.1,0.1,1.7,0.7,1.8,1.6c0.1,1-0.4,1.7-1.2,2.1c-0.7,0.4-1.5,0.5-2.4,0.7c-0.1,0-0.2,0.1-0.3,0.1   c0,0,0,0.1,0,0.1c0.1,0,0.2,0,0.4,0c1.6,0,3.2,0,4.9,0c0.2,0,0.4,0.1,0.6,0.1c-0.6,0.5-0.7,1.1-0.9,1.8c0,0.1-0.1,0.2-0.2,0.2   c-1.2,0.2-2.5,0.5-3.7,0.7c-0.3,0.1-0.6,0.1-0.9,0.1c-0.3,0.1-0.6,0.3-0.8,0.6c-0.1,0.3-0.1,0.5,0.2,0.6c0.3,0.2,0.7,0.4,1,0.6   c0.6,0.3,0.7,0.7,0.2,1.2c-0.1,0.1-0.2,0.1-0.2,0.1c-1.2-0.1-2.4-0.3-3.5-0.9c-0.7-0.4-1.2-0.8-1.6-1.5c-0.1-0.2-0.3-0.2-0.5-0.1   c-0.1,0.1-0.3,0.3-0.4,0.4c-0.9,1-1.9,2-3.2,2.5c-1.1,0.4-2.3,0.1-3-0.7C52,63.8,51.9,63.5,51.8,63.3z M60.4,59.5   c-0.4,0-0.6,0.2-0.6,0.6c0.1,0.9,0.7,1.4,1.4,1.8c0.2,0.1,0.4,0.1,0.5,0.2c0-0.2,0.1-0.4,0.1-0.6c0-0.4,0.1-0.8,0.5-1   c0.2-0.1,0.4-0.1,0.6-0.2c0.1-0.1,0.2-0.2,0.3-0.3c-0.1-0.1-0.2-0.2-0.3-0.3c0,0-0.1,0-0.2-0.1C62,59.7,61.2,59.6,60.4,59.5z    M65.8,56c0.1-0.1,0.2-0.1,0.3-0.2c0-0.1,0-0.2,0-0.2c-0.2-0.1-0.4-0.2-0.6-0.3c-0.2,0-0.3,0.2-0.1,0.3   C65.4,55.8,65.6,55.9,65.8,56z"/><path class="st3" d="M90.3,61.9c-0.7-1-1.3-2-1.9-2.9c0,0-0.1,0-0.1,0c0.2,1.3,0,2.5-1.3,3.3c0-0.1,0-0.2,0-0.3   c0.1-1.7-0.1-3.4-0.2-5c0-0.1,0-0.2-0.1-0.2c-0.4-0.5-0.8-1.1-1.2-1.6c0,0.1,0,0.2,0,0.3c0,1.9,0,3.7,0,5.6c0,1-0.6,1.8-1.6,2.1   c-0.4,0.1-0.8,0.2-1.1,0c-0.5-0.3-0.9-0.6-1.3-0.9c-0.4-0.4-0.8-0.4-1,0.1c-0.2,0.4-0.3,0.8-0.4,1.2c-0.1,0.4-0.2,0.9-0.5,1.2   c-0.4,0.4-0.8,0.5-1.4,0.2c-1.6-0.7-2.1-3-1.4-4.3c0.1-0.2,0.2-0.3,0.4-0.4c0,0.2,0,0.4,0,0.6c0,0.8,0.1,1.5,0.5,2.2   c0.1,0.2,0.2,0.3,0.4,0.4c0.3,0.2,0.7,0.1,0.8-0.2c0.3-0.6,0.6-1.2,0.9-1.8c0.2-0.4,0.5-0.8,0.8-1.2c0.4-0.4,0.9-0.4,1.2,0.1   c0.3,0.3,0.5,0.7,0.8,1c0.4,0.4,0.9,0.3,1.1-0.2c0.3-0.8,0.4-1.5,0.3-2.3c-0.1-1-0.1-2.1-0.2-3.1c-0.1-0.8-0.1-1.7-0.2-2.5   c0-0.1-0.1-0.2-0.1-0.3c-0.7-0.9-1.5-1.8-2.3-2.7c-0.5-0.6-0.8-1.2-0.6-2c0-0.2,0-0.5,0.1-0.7c0-0.3,0.1-0.3,0.3-0.1   c0.6,0.5,1.1,1,1.7,1.5c0.4,0.3,0.3,0.4-0.2,0.6c0.2,0.2,0.4,0.4,0.5,0.7c0,0,0,0,0,0c-0.1-0.6-0.1-1.2-0.2-1.8   c0-0.4,0.1-0.6,0.4-0.9c0.2-0.2,0.4-0.2,0.5,0.1c0.4,0.6,0.7,1.2,1,1.8c0.1,0.2,0.2,0.3,0.3,0.5c0,0.1,0.1,0.4,0,0.5   c-0.1,0.2-0.3,0-0.4-0.1c0,0-0.1,0-0.1,0c0,0.2,0,0.3,0,0.5c0,0.4,0,0.8,0.1,1.2c0,0.2,0.1,0.5,0.2,0.7c0.4,0.5,0.7,1,1.1,1.5   c0,0.1,0.1,0.1,0.2,0.2c-0.1-0.6-0.2-1.1-0.3-1.7c-0.2-1.3-0.5-2.6-0.7-3.9c-0.1-0.6,0.1-1,0.6-1.3c0.2-0.2,0.4-0.1,0.6,0.1   c0.5,0.9,0.9,1.8,1.2,2.7c0.1,0.2,0,0.4-0.3,0.4c-0.2,0-0.3,0.1-0.2,0.3c0.2,1,0.4,2,0.5,3c0.1,0.9,0.2,1.7,0.4,2.6   c0,0.1,0.1,0.3,0.1,0.4c0.5,0.8,1.1,1.5,1.7,2.3c0.3,0.4,0.5,0.8,0.5,1.2c0,0.4,0,0.9,0,1.3C90.4,61.6,90.4,61.7,90.3,61.9z"/><path class="st3" d="M43.1,80.2c11.5,0.3,23,0.2,34.4,0.3c-0.1-0.1-0.1-0.2-0.2-0.2c-0.1-0.2-0.2-0.5-0.1-0.6   c0.1-0.2,0.4-0.3,0.6-0.4c0,0,0.1,0,0.1,0.1c0,0.2,0.2,0.3,0.4,0.3c0.1,0,0.2,0.2,0.2,0.3c0,0.2-0.1,0.4-0.1,0.6   c0.3,0,0.6,0,0.9,0.1c0.7,0,1.4,0.1,2,0.1c0.5,0,0.9,0,1.4-0.1c1.3-0.2,2,0.5,2.1,1.8c0,0.2,0,0.4-0.1,0.6   c-0.1,0.4-0.3,0.6-0.7,0.8c-0.5,0.1-0.9,0.2-1.2-0.3c0-0.1-0.1-0.1-0.2-0.1c-1.3,0-2.6,0-3.9,0c-0.1,0-0.2,0.1-0.3,0.1   c-0.3,0.3-0.7,0.3-0.9-0.1c-0.3-0.5-0.4-0.9-0.1-1.4c-1.2,0-2.3,0-3.5,0c-2.6,0-5.2,0-7.8,0c-5.9,0-11.8,0-17.8,0   c-1.1,0-2.3-0.1-3.4-0.4C44.3,81.3,43.6,80.8,43.1,80.2z M82,82.7C82,82.7,82,82.7,82,82.7c0.2-0.1,0.4,0,0.5-0.1   c0.1,0,0.2-0.2,0.2-0.3c0-0.1,0-0.3-0.2-0.3c-1.3,0-2.6-0.1-3.9-0.1c-0.1,0-0.2,0.2-0.2,0.3c0,0.1,0.1,0.3,0.2,0.3   c0.5,0,0.9,0.1,1.4,0.1c0.1,0,0.2,0,0.2-0.1c0.2-0.2,0.7-0.2,0.9-0.1C81.5,82.6,81.7,82.7,82,82.7z"/><path class="st3" d="M48.1,50.4c0.2,1.6,0.5,3.2,0.7,4.8c0.1-0.1,0.2-0.1,0.4-0.1c0.4-0.1,0.7,0,0.7,0.5c0,0.2,0,0.5,0.3,0.5   c0.3,0,0.6-0.1,0.7-0.4c0.1-0.2,0.2-0.4,0.4-0.5c0.3-0.4,0.8-0.3,1,0.2c0,0.1,0,0.1,0.1,0.2c0.1,0.1,0.2,0.2,0.2,0.2   c0.1,0,0.2-0.1,0.2-0.2c0.1-0.7,0.3-0.8,1.1-0.9c-0.1,0.5-0.1,1-0.2,1.4c0,0.1-0.1,0.3-0.1,0.4c0,0.9-1.1,1.3-1.9,0.9   c-0.3-0.2-0.5-0.1-0.8,0.1c-0.6,0.5-1.3,0.7-2.1,0.1c0,0.3,0,0.6,0.1,0.9c0.3,2.7-0.6,4.5-3,5.7c-1.1,0.5-2.2,0.9-3.3,0.9   c-0.6,0-1.3-0.1-1.9-0.3c-1-0.5-1.5-1.3-1.6-2.4c0-0.6,0.1-1.3,0.2-1.9c0-0.2,0.1-0.5,0.4-0.5c0.3,0,0.3,0.3,0.4,0.6   c0.1,0.5,0.1,1,0.2,1.5c0.1,0.7,0.6,1.1,1.3,1.3c1.9,0.6,4.6-0.3,5.7-2.7c0.3-0.7,0.5-1.5,0.5-2.3c0-0.1-0.1-0.2-0.1-0.3   c-0.1,0.1-0.2,0.1-0.3,0.2c-0.1,0.2-0.1,0.4-0.2,0.7c-0.4,1.5-1.1,2.8-2.6,3.5c-0.9,0.5-1.9,0.6-2.9,0.1c-1-0.4-1.4-1.2-1.5-2.2   c-0.1-0.7,0.1-1.4,0.4-2.1c0-0.1,0.2-0.2,0.3-0.2c0.1,0,0.2,0.2,0.3,0.3c0.1,0.5,0.1,1,0.2,1.5c0,0.7,0.4,1.2,1,1.3   c0.3,0.1,0.7,0,1,0c1-0.2,1.9-0.7,2.6-1.5c0.3-0.4,0.5-0.8,0.5-1.3c-0.2,0.1-0.4,0.2-0.5,0.3c-0.4,0.3-0.7,0.4-1.2,0.3   c-0.7,0-1-0.4-1.1-1c0-0.8,0.1-1.6,0.8-2.2c0.7-0.5,1.6-0.6,2.2,0.2c0.1,0.1,0.2,0.2,0.3,0.3c0.1,0.1,0.3,0.3,0.4,0.1   c0.1-0.1,0.3-0.3,0.3-0.5c0-0.3-0.1-0.6-0.1-0.9c-0.4-2.1-0.7-4.1-1.1-6.2c-0.1-0.6,0.4-1.1,1-1c0.2,0,0.4,0.3,0.5,0.5   c0.3,0.6,0.5,1.1,0.8,1.7c0.1,0.1,0.1,0.3,0.2,0.4c0.1,0.3,0,0.5-0.3,0.5C48.4,50.4,48.2,50.4,48.1,50.4z M45.2,56.4   c-0.2,0-0.5,0.2-0.5,0.4c0,0.3,0.3,0.2,0.5,0.3c0.3,0,0.4-0.1,0.4-0.3C45.6,56.6,45.4,56.4,45.2,56.4z"/><path class="st3" d="M46.1,50.2c0.2,0.5,0.3,1.1,0.5,1.6c0.1,0.3,0.1,0.7,0.1,1c0,0.5-0.2,0.9-0.6,1.1c-0.4,0.2-0.9,0.4-1.4,0.5   c-0.3,0.1-0.6-0.1-0.8-0.3c-0.2-0.1-0.4-0.3-0.6-0.3c-0.3-0.1-0.5,0-0.6,0.3c0,0.3,0,0.7,0,1c0.1,0.9,0.2,1.8,0.1,2.7   c-0.1,0.5-0.2,0.9-0.4,1.4c-0.1,0.3-0.4,0.5-0.8,0.5c0-0.6-0.1-1.2-0.1-1.8c0-0.8-0.1-1.6-0.1-2.4c0-0.3-0.2-0.5-0.6-0.5   c-0.3,0-0.5-0.1-0.7-0.2c-0.5-0.2-0.7-0.6-0.7-1.1c0-0.8,0-1.5,0-2.3c0-0.1,0-0.2,0-0.3c0-0.2-0.2-0.2-0.2-0.1   c-0.1,0.2-0.3,0.4-0.3,0.6c-0.1,0.5-0.1,1.1-0.1,1.6c0,0.1,0,0.3-0.1,0.4c-0.1,0.4-0.3,0.7-0.7,0.8c-0.4,0.1-0.8,0-1-0.3   c-0.3-0.3-0.4-0.7-0.5-1.1c-0.2-1.1-0.2-2.1-0.1-3.2c0-0.1,0.1-0.1,0.1-0.2c0.1,0,0.2,0,0.2,0.1c0.1,0.2,0.2,0.4,0.2,0.5   c0.2,0.6,0.3,1.3,0.4,1.9c0,0.1,0.1,0.3,0.2,0.4c0.1,0.1,0.2,0.2,0.3,0.2c0.1,0,0.2-0.1,0.3-0.2c0.1-0.2,0.1-0.4,0.1-0.6   c0.1-0.5,0.2-1.1,0.4-1.6c0.1-0.4,0.4-0.7,0.6-1c0.2-0.2,0.4-0.3,0.7-0.2c0.3,0.1,0.4,0.3,0.4,0.6c0.2,0.8,0.1,1.5,0,2.3   c-0.1,0.3,0,0.6,0.2,0.8c0.1,0.1,0.2,0.1,0.3,0.1c0.1,0,0.2-0.2,0.2-0.3c0-0.3,0-0.5,0-0.8c-0.1-0.8-0.3-1.6-0.5-2.5   c-0.1-0.6-0.1-1.2-0.1-1.8c0-0.3,0.5-0.5,0.7-0.3c0.2,0.2,0.4,0.5,0.4,0.7c0.1,0.6,0.2,1.3,0.3,2c0.1,0.6,0.1,1.2,0.2,1.8   c0,0.1,0.1,0.3,0.2,0.4c0.1,0.1,0.2,0.1,0.3,0.1c0-0.1,0.1-0.2,0.1-0.3c-0.2-0.5-0.4-0.9-0.5-1.4c-0.1-0.5-0.2-1.1,0-1.6   c0.1-0.2,0.2-0.3,0.4-0.4c0.2-0.1,0.4,0.1,0.5,0.3c0.6,0.8,0.8,1.7,0.6,2.7c0,0.2,0,0.3,0.1,0.4c0.3,0.2,0.6,0.5,0.9,0.7   c0.1,0.1,0.2,0.1,0.3,0.1c0.3,0.1,0.5-0.1,0.4-0.4c-0.1-0.4-0.2-0.7-0.4-1.1c-0.4-0.6-0.7-1.2-0.8-1.9c0-0.4,0-0.7,0.3-0.9   c0.2-0.2,0.5-0.2,0.7,0c0.3,0.2,0.5,0.4,0.7,0.6c0.2,0.2,0.3,0.4,0.4,0.7c0,0.1,0,0.3,0,0.3C46.4,50.2,46.3,50.2,46.1,50.2   C46.1,50.2,46.1,50.2,46.1,50.2z"/><path class="st3" d="M74.3,61c-1-1.7-2.1-3.5-3.1-5.2c0,0-0.1,0-0.1,0c0,0.6,0.1,1.3,0.1,1.9c0,1.2,0.1,2.5,0,3.7   c0,0.7-0.4,1.2-1,1.6c-0.1,0.1-0.2,0.1-0.4,0.2c0-0.5,0-1,0-1.5c0-1.4,0-2.9-0.1-4.3c-0.1-1.3-0.2-2.5-0.3-3.8   c0-0.2-0.1-0.3-0.2-0.5c-1-1.4-2.1-2.7-3.2-4.1c-0.4-0.6-0.5-1.2-0.4-1.8c0-0.2,0.2-0.4,0.5-0.3c0.2,0.1,0.4,0.1,0.6,0.3   c0.6,0.4,1.1,0.9,1.7,1.3c0-0.2,0-0.5,0.1-0.7c0.1-0.2,0.2-0.4,0.4-0.6c0,0,0.2-0.1,0.2,0c0.7,0.9,1.5,1.8,1.8,3c0,0.1,0,0.2,0,0.4   c-0.2-0.1-0.3-0.1-0.4-0.2c0,0.2,0,0.3,0,0.5c0.1,0.7,0.2,1.4,0.3,2c0,0.1,0.1,0.3,0.2,0.4c1.2,1.7,2.3,3.4,3.3,5.2   c0.3,0.6,0.3,1.3,0.3,1.9C74.6,60.5,74.5,60.8,74.3,61C74.4,61,74.4,61,74.3,61z M68.8,50.2C68.8,50.1,68.8,50.1,68.8,50.2   c0-0.2,0-0.3,0-0.5c-0.1-0.4-0.1-0.4-0.5-0.2C68.4,49.7,68.6,49.9,68.8,50.2z"/><path class="st3" d="M66.1,52.3c-0.3-0.2-0.5-0.1-0.6,0.1c-0.1,0.1-0.2,0.3-0.3,0.5c-0.2,0.6-0.7,0.8-1.3,0.8c-0.6,0-1-0.1-1.3-0.7   c-0.3-0.5-0.6-0.5-1-0.2c-0.2,0.2-0.4,0.4-0.6,0.6c-0.5,0.5-1.1,0.6-1.8,0.4c-0.7-0.2-1-0.8-1.1-1.5c-0.1-0.5,0-1-0.1-1.4   c0-0.1-0.1-0.2-0.1-0.3c-0.1,0.1-0.2,0.1-0.2,0.2c-0.1,0.2-0.1,0.4-0.2,0.6c-0.2,0.5-0.3,0.9-0.5,1.4c-0.3,0.8-1.2,0.7-1.6,0.3   c-0.4-0.4-0.6-0.9-0.8-1.4c-0.3-1-0.3-2,0-3c0-0.1,0.1-0.2,0.2-0.2c0.1,0.1,0.2,0.1,0.2,0.2c0.1,0.6,0.3,1.2,0.4,1.8   c0.1,0.4,0.1,0.9,0.4,1.2c0.2,0.3,0.4,0.3,0.5-0.1c0.1-0.3,0.2-0.6,0.3-0.9c0.3-0.8,0.6-1.5,1.1-2.1c0.1-0.1,0.3-0.3,0.4-0.4   c0.4-0.3,0.9-0.1,1,0.4c0.1,0.6,0.1,1.3,0.1,1.9c0,0.1,0,0.3,0,0.4c0,0.7,0.4,1.1,1,1.2c0.2,0,0.4,0,0.5-0.1   c0.4-0.3,0.8-0.6,0.8-1.2c0-0.8,0-1.5-0.3-2.3c-0.2-0.4-0.1-0.8,0.1-1.2c0.1-0.2,0.2-0.4,0.4-0.6c0.2-0.2,0.3-0.2,0.4,0   c0.3,0.5,0.5,1,0.5,1.6c0,0.8,0.1,1.5,0.2,2.3c0,0.3,0.2,0.7,0.3,1c0.2,0.3,0.5,0.4,0.8,0.3c0.4-0.1,0.6-0.3,0.6-0.7   c0-0.8-0.3-1.4-0.8-2c-0.4-0.6-0.3-1.1-0.1-1.7c0.2-0.5,1-0.7,1.4-0.3c0.3,0.3,0.6,0.7,0.8,1.2c0.2,0.4,0,0.6-0.4,0.6   c-0.3,0-0.3,0-0.2,0.3c0.1,0.5,0.3,1,0.5,1.6c0.2,0.7,0.7,0.8,1.4,0.5c0.1,0,0.2-0.2,0.3-0.2c0.1,0,0.3-0.1,0.4,0   c0.1,0.1,0.1,0.3,0.1,0.4c-0.2,0.4-0.4,0.7-0.7,1.1c-0.1,0.1-0.2,0.2-0.4,0.3c-0.1,0-0.3,0-0.4,0c-0.1-0.1,0-0.3,0-0.4   C66,52.4,66.1,52.4,66.1,52.3z"/><path class="st3" d="M90,47c0.2,0.3,0.3,0.5,0.5,0.7c0.4,0.5,0.8,1,1.1,1.6c0.3,0.4,0.2,0.5-0.3,0.6c-0.3,0-0.2,0.2-0.2,0.4   c0.1,0.6,0.3,1.3,0.3,1.9c0.1,1.1,0.3,2.2,0.4,3.3c0.1,1.9,0.1,3.8,0.1,5.7c0,0.5-0.1,1.1-0.2,1.6C91.3,64,90.3,64.7,89,65   c-0.5,0.1-1,0.1-1.4,0.2c-0.1,0-0.2,0-0.3,0c-0.2-0.1-0.3-0.3-0.2-0.5c0.1-0.2,0.3-0.3,0.5-0.4c0.4-0.2,0.9-0.4,1.3-0.6   c1-0.6,1.7-1.3,1.9-2.5c0-0.4,0-0.8,0-1.2c-0.1-1.3-0.2-2.6-0.3-3.9c-0.2-1.7-0.4-3.4-0.6-5c-0.1-0.7-0.2-1.3-0.3-2   c-0.1-0.6,0-1.2,0.4-1.8C89.8,47.2,89.9,47.1,90,47z"/><path class="st3" d="M74.5,47.2c0.1,0.2,0.2,0.3,0.3,0.5c0.3,0.6,0.6,1.3,0.9,2c0.2,0.4,0.1,0.5-0.3,0.6c-0.1,0-0.2,0.2-0.2,0.2   c0,0.5,0.1,0.9,0.2,1.4c0.3,1.6,0.5,3.3,0.6,5c0,1.2,0,2.4,0.1,3.5c0,0.5-0.1,1-0.3,1.5c-0.5,1-1.1,1.9-1.9,2.5   c-0.5,0.4-1.2,0.7-1.8,0.7c-0.5,0-0.9-0.2-1.2-0.6c-0.1-0.2-0.1-0.3,0.1-0.4c1.5-0.6,2.7-1.5,3.8-2.6c0.3-0.3,0.3-0.6,0.3-1   c-0.1-0.8-0.1-1.6-0.2-2.4c-0.1-0.9-0.2-1.9-0.3-2.8c-0.1-1.3-0.3-2.6-0.4-3.9c-0.1-0.7-0.2-1.4-0.3-2c-0.1-0.7,0.1-1.4,0.6-2   C74.3,47.3,74.4,47.3,74.5,47.2z"/><path class="st3" d="M77.8,62.4c0-0.4,0-0.8,0-1.2c0-1.8-0.2-3.6-0.5-5.3c-0.4-2-0.8-3.9-1.2-5.9c-0.2-0.9,0.1-1.7,0.4-2.5   c0-0.1,0.2-0.2,0.3-0.3c0.1,0.1,0.1,0.2,0.2,0.3c0.4,0.6,0.7,1.2,1.1,1.8c0.1,0.2,0.3,0.5,0.4,0.7c0.1,0.3,0.1,0.4-0.2,0.4   c0,0,0,0-0.1,0c-0.4,0-0.5,0.1-0.4,0.4c0.1,0.4,0.2,0.9,0.2,1.3c0.2,1.4,0.5,2.9,0.6,4.3c0.2,1.3,0.2,2.5,0.3,3.8   c0.1,0.7-0.2,1.4-0.7,2C78.3,62.2,78.1,62.3,77.8,62.4C77.9,62.4,77.9,62.4,77.8,62.4z"/><path class="st3" d="M53.9,49.3c-0.9,0.8-1.8,1.7-2.7,2.5c-0.1,0.1-0.3,0.1-0.4,0.1c-0.5,0-1,0-1.5,0c0,0,0-0.1,0-0.1   c0.1-0.1,0.1-0.2,0.2-0.2c0.7-0.5,1.4-1,2.1-1.5c0.3-0.2,0.6-0.5,0.9-0.7c0.2-0.2,0.2-0.3,0-0.4c0,0-0.1-0.1-0.1-0.1   C52,48.6,51.9,48.3,52,48c0.1-0.4,0.3-0.7,0.7-0.7c0.7-0.1,1.1,0.1,1.2,0.7c0.1,0.3,0,0.5-0.2,0.7c-0.3,0.2-0.3,0.2,0,0.5   C53.7,49.1,53.8,49.2,53.9,49.3z M53.2,48.5c0-0.3-0.2-0.5-0.4-0.5c-0.1,0-0.2,0.1-0.2,0.2c0,0.2,0.2,0.4,0.4,0.4   C53.1,48.6,53.2,48.5,53.2,48.5z"/><path class="st3" d="M81.7,55.1c-0.2-0.1-0.3-0.1-0.5-0.2c-0.6-0.3-1.1-0.8-1.6-1.3c-0.4-0.5-0.2-1.1,0.4-1.2   c0.2-0.1,0.4,0,0.5,0.2c0,0,0,0.1,0.1,0.1c0.1,0.1,0.2,0.1,0.3,0.1c0-0.1,0.1-0.2,0.1-0.3c-0.1-0.5,0-0.7,0.4-0.9   c0.3-0.1,0.6,0,0.8,0.3c0.2,0.3,0.3,0.7,0.3,1.1c-0.1,0-0.1,0-0.2,0c-0.4-0.1-0.4,0-0.5,0.4C81.7,53.9,81.7,54.5,81.7,55.1z"/><path class="st3" d="M36.7,58.5c0.1-0.2,0.2-0.4,0.3-0.6c0.6-0.8,1.4-1.4,2.3-1.8c0.3-0.1,0.6-0.2,0.9-0.3c0.6-0.1,0.9,0.1,1.2,0.7   C39.9,57.2,38.3,57.9,36.7,58.5C36.7,58.5,36.7,58.5,36.7,58.5z"/><path class="st3" d="M37.1,60.4c0,0.4-0.1,0.8-0.1,1.3c0,0.4,0,0.9,0,1.3c0,0.1,0.1,0.2,0.2,0.3c0.1-0.1,0.2-0.2,0.3-0.2   c0.1-0.1,0.3-0.3,0.4-0.2c0.2,0,0.3,0.2,0.3,0.5c-0.1,0.3-0.1,0.6-0.3,1c-0.1,0.3-0.4,0.5-0.7,0.5c-0.4,0-0.7-0.2-0.9-0.6   c-0.2-0.4-0.2-0.9-0.2-1.4c0.1-0.8,0.3-1.5,0.7-2.1C36.9,60.6,37,60.5,37.1,60.4C37.1,60.4,37.1,60.4,37.1,60.4z"/><path class="st3" d="M83.4,55.6c0,0.3-0.1,0.5-0.3,0.7c-0.8,0.5-1.7,1.1-2.5,1.6c-0.3,0.2-0.4,0.1-0.5-0.3c0-0.3,0.1-0.5,0.3-0.7   c0.8-0.5,1.7-1.1,2.5-1.7c0.1-0.1,0.2-0.1,0.3-0.1c0,0.1,0.1,0.2,0.1,0.4C83.5,55.5,83.4,55.5,83.4,55.6z"/><path class="st3" d="M86.1,62.7c0.1,0,0.1,0,0.2,0c0.5,0,0.6,0.2,0.4,0.7c-0.2,0.3-0.1,0.4,0.2,0.4c0.1,0,0.2,0,0.2,0   c0.1,0,0.2,0.1,0.3,0.1c0,0.1,0,0.3-0.1,0.3c-0.5,0.3-1,0.6-1.7,0.7c-0.1,0-0.3-0.1-0.3-0.2c0-0.1,0.1-0.3,0.1-0.4   c0.1-0.1,0.3-0.2,0.4-0.3c0.3-0.2,0.3-0.4-0.1-0.6c-0.1-0.1-0.2-0.1-0.2-0.2c-0.1-0.2,0-0.4,0.3-0.4C85.9,62.7,86,62.7,86.1,62.7   C86.1,62.7,86.1,62.7,86.1,62.7z"/><path class="st3" d="M62.4,54.8c0-0.1,0-0.2,0-0.2c0.1-0.1,0.2-0.2,0.3-0.3c0.2,0,0.3,0.1,0.3,0.3c0,0.2,0.1,0.3,0.1,0.5   c0,0.2-0.1,0.4-0.3,0.5c-0.5,0.2-1,0.3-1.5,0c-0.4-0.2-0.6-0.8-0.4-1.2c0.1-0.1,0.2-0.2,0.3-0.2c0.1,0,0.1,0.1,0.2,0.2   c0.1,0.1,0.1,0.1,0.2,0.2c0.1-0.1,0.1-0.1,0.2-0.2c0.1-0.1,0.1-0.1,0.2-0.2c0.1,0.1,0.2,0.1,0.2,0.2C62.2,54.6,62.2,54.7,62.4,54.8   C62.3,54.8,62.3,54.8,62.4,54.8z"/><path class="st3" d="M83.6,58.9c0,0.4-0.1,0.8-0.4,1.1c-0.1,0.1-0.2,0.1-0.3,0.1c0-0.1-0.1-0.2-0.1-0.3c0-0.1,0-0.1,0-0.2   c0.1-0.4,0-0.7-0.2-1.1c-0.1-0.3-0.2-0.7-0.3-1.1c-0.1-0.2,0.1-0.4,0.3-0.5c0.2-0.1,0.4,0,0.6,0.2C83.5,57.7,83.5,58.3,83.6,58.9z"/><path class="st3" d="M72.9,51.8c0-0.1,0-0.2,0.1-0.3c0.1-0.1,0.2-0.2,0.3-0.2c0.1,0,0.2,0.1,0.2,0.2c0.2,0.7-0.1,1.2-0.8,1.2   c-0.2,0-0.4,0-0.6,0c-0.5-0.1-0.9-0.7-0.7-1.2c0-0.1,0.2-0.2,0.3-0.2c0,0,0.1,0.2,0.2,0.2c0.1,0.1,0.1,0.1,0.2,0.2   c0-0.1,0.1-0.1,0.1-0.2c0.1-0.1,0.1-0.2,0.2-0.2c0.1,0.1,0.2,0.1,0.2,0.2C72.7,51.7,72.7,51.8,72.9,51.8   C72.8,51.9,72.8,51.9,72.9,51.8z"/><path class="st3" d="M44.4,47.7c0-0.1,0-0.2,0-0.3c0.1-0.1,0.2-0.2,0.3-0.2c0.1,0,0.2,0.1,0.3,0.3c0.2,0.7-0.1,1.1-0.8,1.2   c-0.6,0.1-1.2-0.2-1.3-0.7c0-0.2,0-0.4,0-0.6c0-0.1,0.2-0.2,0.3-0.2c0.1,0,0.2,0.2,0.2,0.2c0.1,0.1,0.1,0.1,0.2,0.2   c0-0.1,0.1-0.1,0.1-0.2c0.1-0.1,0.1-0.2,0.2-0.2c0.1,0.1,0.2,0.1,0.2,0.2C44.2,47.6,44.2,47.7,44.4,47.7   C44.3,47.8,44.3,47.7,44.4,47.7z"/><path class="st3" d="M72.9,49.1c-0.1,0.3-0.3,0.7-0.4,1.1c0,0.1-0.2,0.1-0.3,0.2c0-0.1-0.1-0.2-0.1-0.3c0.1-0.5,0-1-0.4-1.4   c-0.1-0.1-0.2-0.3-0.3-0.4c-0.2-0.3-0.2-0.5,0-0.7c0.2-0.2,0.6-0.2,0.8,0C72.7,47.9,72.8,48.4,72.9,49.1z"/><path class="st3" d="M88.5,51.4c0.1-0.4-0.1-0.8-0.3-1.2c-0.2-0.2-0.3-0.5-0.4-0.8c-0.1-0.2,0-0.4,0.2-0.5c0.2-0.1,0.5-0.1,0.6,0.1   c0.2,0.4,0.4,0.8,0.5,1.2c0.1,0.6-0.1,1.1-0.3,1.6c0,0.1-0.1,0.1-0.2,0.2c0-0.1-0.1-0.2-0.1-0.3C88.5,51.7,88.5,51.5,88.5,51.4z"/><path class="st3" d="M51.7,52.6c0-0.5,0.3-0.9,0.7-1.1c0.1,0,0.2,0,0.3,0c0,0,0,0.2,0,0.3c0,0.2-0.1,0.4-0.1,0.6   c0,0.1,0.1,0.2,0.2,0.3c0.1,0,0.2,0,0.3-0.1c0.1-0.1,0.2-0.2,0.4-0.2c0,0,0.1,0.1,0.1,0.1c-0.1,0.5-0.6,0.9-1.1,0.9   C52,53.5,51.7,53.1,51.7,52.6z"/><path class="st3" d="M38.3,49c0.1-0.3,0-0.6-0.2-0.8c-0.1-0.1-0.3-0.3-0.3-0.4c-0.1-0.2-0.1-0.4,0-0.5c0.1-0.1,0.4-0.2,0.5-0.1   c0.4,0.1,0.7,0.5,0.7,1c0,0.4-0.1,0.9-0.3,1.2c0,0.1-0.2,0.1-0.2,0.2c0-0.1-0.1-0.2-0.1-0.3C38.3,49.2,38.3,49.1,38.3,49z"/><path class="st3" d="M60.5,47.4c-0.1,0.5-0.3,0.9-0.4,1.4c0,0.1-0.2,0.2-0.3,0.3c-0.2,0.1-0.5,0-0.4-0.3c0.1-0.5,0.1-1,0.2-1.5   c0-0.1,0.1-0.3,0.2-0.4c0.1-0.1,0.3-0.2,0.4-0.2c0.1,0,0.2,0.2,0.3,0.4C60.4,47.2,60.4,47.3,60.5,47.4   C60.4,47.4,60.5,47.4,60.5,47.4z"/><path class="st3" d="M51.1,60.3c0.2-0.6,0-1-0.4-1.4c-0.2-0.2-0.3-0.4-0.2-0.6c0.1-0.2,0.5-0.2,0.7,0c0.4,0.2,0.7,1,0.5,1.4   c-0.1,0.2-0.1,0.4-0.2,0.6c-0.1,0.1-0.2,0.2-0.3,0.2C51.2,60.5,51.2,60.4,51.1,60.3z"/><path class="st3" d="M56.7,48c0,0.4-0.2,0.5-0.5,0.7c-0.3,0.1-0.5,0-0.6-0.2c-0.1-0.2-0.1-0.4-0.1-0.6c0.1-0.5,0.4-0.9,0.9-1.2   c0.1,0,0.2,0,0.3,0c0,0.1,0,0.3,0,0.4c-0.1,0.1-0.2,0.2-0.3,0.3c-0.1,0.1-0.2,0.2-0.2,0.3c-0.1,0.2,0.1,0.4,0.3,0.3   C56.6,48,56.6,48,56.7,48z"/><path class="st65" d="M60.4,59.5c0.8,0.1,1.6,0.1,2.4,0.2c0.1,0,0.1,0,0.2,0.1c0.1,0.1,0.2,0.2,0.3,0.3c-0.1,0.1-0.2,0.2-0.3,0.3   c-0.2,0.1-0.4,0.1-0.6,0.2c-0.4,0.2-0.5,0.6-0.5,1c0,0.2,0,0.4-0.1,0.6c-0.2-0.1-0.4-0.1-0.5-0.2c-0.7-0.4-1.3-1-1.4-1.8   C59.8,59.7,60,59.5,60.4,59.5z"/><path class="st65" d="M65.8,56c-0.2-0.1-0.4-0.2-0.5-0.4c-0.1-0.1,0-0.3,0.1-0.3c0.2,0,0.4,0.2,0.6,0.3c0,0,0.1,0.2,0,0.2   C66,55.9,65.9,55.9,65.8,56z"/><path class="st65" d="M82,82.7c-0.2-0.1-0.5-0.2-0.7-0.3c-0.3-0.1-0.7-0.1-0.9,0.1c-0.1,0.1-0.2,0.1-0.2,0.1c-0.5,0-0.9,0-1.4-0.1   c-0.1,0-0.2-0.2-0.2-0.3c0-0.1,0.1-0.3,0.2-0.3c1.3,0,2.6,0,3.9,0.1c0.2,0,0.2,0.1,0.2,0.3c0,0.1-0.1,0.3-0.2,0.3   C82.4,82.7,82.2,82.7,82,82.7C82,82.7,82,82.7,82,82.7z"/><path class="st65" d="M45.2,56.4c0.2,0,0.4,0.2,0.4,0.4c0,0.2-0.1,0.3-0.4,0.3c-0.2,0-0.5,0-0.5-0.3C44.7,56.7,45,56.4,45.2,56.4z"/><path class="st65" d="M68.8,50.2c-0.2-0.2-0.4-0.5-0.6-0.7c0.4-0.1,0.5-0.1,0.5,0.2C68.7,49.8,68.8,50,68.8,50.2   C68.8,50.1,68.8,50.1,68.8,50.2z"/><path class="st65" d="M53.2,48.5c0,0-0.1,0.1-0.2,0.1c-0.2,0-0.4-0.2-0.4-0.4c0-0.1,0.1-0.2,0.2-0.2C53,48,53.2,48.3,53.2,48.5z"/></g></svg>